<svg t="1686551086134" class="icon" viewBox="0 0 1024 1024" version="1.1" xmlns="http://www.w3.org/2000/svg" p-id="1767" width="48" height="48"><path d="M327.232 960c0 0-168-98.048-185.344-252.736-17.408-155.52 115.84-367.616 115.84-367.616l23.168 114.88c0 0 85.504-94.144 138.944-206.784C455.232 173.248 443.008 64 443.008 64s79.488 39.744 139.008 114.816c67.392 85.12 115.84 229.76 115.84 229.76l23.168-183.808c0 0 173.184 237.696 162.112 413.504C871.104 829.44 674.688 960 674.688 960s59.072-145.216 23.168-275.712c-33.472-121.92-162.176-229.76-162.176-229.76S521.216 534.848 512.512 569.408c-13.44 53.184-23.168 91.904-23.168 91.904L419.84 546.432c0 0-57.984 128.896-92.608 206.72C278.72 862.336 327.232 960 327.232 960z" fill="#d83f2c" p-id="1768" data-spm-anchor-id="a313x.7781069.0.i1" class="selected"></path></svg>